<?xml version="1.0" encoding="utf-8"?>
<!-- Generator: Adobe Illustrator 25.2.3, SVG Export Plug-In . SVG Version: 6.00 Build 0)  -->
<svg version="1.1" id="Camada_1" xmlns="http://www.w3.org/2000/svg" xmlns:xlink="http://www.w3.org/1999/xlink" x="0px" y="0px"
	 viewBox="0 0 1440 320" style="enable-background:new 0 0 1440 320;" xml:space="preserve">
<style type="text/css">
	.st0{fill:#CCD5AE;}
</style>
<path class="st0" d="M0,64l48,10.7c48,10.3,144,32.3,240,32C384,107,480,85,576,85.3c96-0.3,192,21.7,288,32
	c96,10.7,192,10.7,288-5.3s192-48,240-64l48-16v288h-48c-48,0-144,0-240,0s-192,0-288,0s-192,0-288,0s-192,0-288,0s-192,0-240,0H0
	V64z"/>
</svg>
